<svg width="66" height="59" viewBox="0 0 66 59" fill="none" xmlns="http://www.w3.org/2000/svg">
<path d="M22.3539 31.6278V32.3884C22.3539 33.0545 21.8219 33.5945 21.1658 33.5945C20.5097 33.5945 19.9777 33.0545 19.9777 32.3884V31.6278C19.9777 30.9617 20.5097 30.4217 21.1658 30.4217C21.8219 30.4217 22.3539 30.9617 22.3539 31.6278ZM27.8892 32.4367C26.6902 35.6384 24.051 37.7071 21.1658 37.7071C18.2806 37.7071 15.6413 35.6384 14.4421 32.4367C14.3387 32.1607 14.3385 31.8557 14.4421 31.5795C15.6414 28.3775 18.2806 26.3086 21.1658 26.3086C24.051 26.3086 26.6902 28.3777 27.8892 31.5795C27.9926 31.8555 27.9926 32.1607 27.8892 32.4367ZM25.4925 32.0081C24.5932 29.9965 22.9331 28.7206 21.1658 28.7206C19.3985 28.7206 17.7381 29.9965 16.8388 32.0081C17.7381 34.0194 19.3984 35.2951 21.1658 35.2951C22.9331 35.2951 24.5934 34.0194 25.4925 32.0081V32.0081ZM65.5786 48.8296C65.0774 49.2593 64.3278 49.1955 63.9043 48.6867C62.512 47.0138 61.0458 45.5671 59.5516 44.3746C58.8835 45.7535 58.0915 47.0765 57.182 48.3282C58.8994 50.7346 60.357 53.6971 61.4466 57.0883C61.6501 57.7215 61.3094 58.4023 60.6855 58.6088C60.0615 58.815 59.391 58.4695 59.1877 57.8362C58.2618 54.955 57.0369 52.3967 55.6136 50.2838C55.2932 50.6467 54.9617 51.0021 54.6195 51.3495C49.7594 56.2831 43.323 59 36.4959 59H29.5038C22.6767 59 16.2404 56.2831 11.3802 51.3495C11.0379 51.002 10.7066 50.6468 10.3861 50.284C8.96267 52.3969 7.73777 54.9549 6.81196 57.8362C6.60851 58.4697 5.93799 58.8152 5.3141 58.6088C4.69036 58.4023 4.34954 57.7215 4.55299 57.0883C5.6426 53.6971 7.10037 50.7347 8.81773 48.3284C7.90811 47.0766 7.11611 45.7537 6.44797 44.3746C4.95382 45.5671 3.48789 47.0138 2.09562 48.6867C1.67222 49.1955 0.922692 49.2593 0.421326 48.8296C-0.0798918 48.3997 -0.14286 47.6389 0.280539 47.1301C1.92394 45.1554 3.67724 43.4657 5.47687 42.0995C4.40389 39.2104 3.84357 36.1227 3.84357 32.9524C3.84357 29.2516 4.59963 25.6779 6.09184 22.3211L4.74977 7.85758C4.46909 4.83078 5.28648 2.16728 7.05106 0.357805C7.30115 0.101375 7.65089 -0.0287241 8.00494 0.00534596C10.5027 0.240218 12.8153 1.74729 14.5165 4.24902L18.1595 9.6057C21.6753 7.83557 25.5744 6.90437 29.5038 6.90437H36.4959C40.4253 6.90437 44.3247 7.83572 47.8401 9.6057L51.4833 4.24902C53.1846 1.74714 55.4972 0.239917 57.995 0.00534596C58.3493 -0.0276688 58.6989 0.101375 58.9488 0.357805C60.7136 2.16774 61.5308 4.83123 61.25 7.85758L59.9079 22.3209C61.4 25.6776 62.1562 29.2513 62.1562 32.9523C62.1562 36.1226 61.596 39.2103 60.5229 42.0995C62.3225 43.4657 64.076 45.1554 65.7195 47.1301C66.1429 47.6389 66.0798 48.3999 65.5786 48.8296V48.8296ZM59.7799 32.9524C59.7799 29.6089 59.0996 26.3802 57.7571 23.3468C52.6495 22.2645 48.881 19.6738 47.6005 16.3302C47.3628 15.7094 47.6659 15.0105 48.2774 14.7693C48.8893 14.5282 49.5775 14.8355 49.8153 15.4564C49.9795 15.8856 50.2076 16.3018 50.4935 16.7016C51.0488 12.1941 52.8949 8.68355 55.6312 7.07804C56.1989 6.74458 56.926 6.94191 57.2544 7.51854C57.5827 8.09517 57.3883 8.83295 56.8203 9.16626C54.4425 10.5615 52.8836 14.2234 52.7104 18.7764C54.0427 19.6665 55.7307 20.3827 57.6574 20.8523L58.8842 7.6316C59.0751 5.5758 58.6359 3.77717 57.6424 2.49472C56.0696 2.82879 54.5943 3.92023 53.4387 5.61966L49.1986 11.8539C48.8522 12.3631 48.1822 12.5237 47.6482 12.2253C44.2889 10.3492 40.4923 9.34505 36.6585 9.31732L41.0755 19.2949C41.3445 19.9024 41.0773 20.6164 40.4786 20.8892C39.8804 21.1625 39.177 20.8912 38.908 20.2835L34.0533 9.31671H31.9532L27.0981 20.2835C26.8292 20.8909 26.1263 21.1622 25.5275 20.8892C24.929 20.6162 24.6618 19.9024 24.9308 19.2949L29.3479 9.31732C25.5121 9.34385 21.7129 10.348 18.3513 12.2253C17.8172 12.5237 17.1471 12.3631 16.8008 11.8539L12.5609 5.61966C11.4055 3.91993 9.93021 2.82848 8.35735 2.49442C7.36397 3.77672 6.92483 5.57549 7.11552 7.6313L8.34487 20.8806C10.2642 20.4252 11.951 19.7263 13.292 18.8544C13.1337 14.265 11.5705 10.5693 9.17934 9.16626C8.6113 8.8328 8.4169 8.09532 8.74525 7.51854C9.07361 6.94191 9.80041 6.74428 10.3685 7.07789C13.1332 8.69999 14.9892 12.2674 15.5231 16.8429C15.8581 16.4001 16.1215 15.9362 16.3054 15.4563C16.5432 14.8356 17.2314 14.5272 17.8432 14.7691C18.4548 15.0105 18.7579 15.7092 18.5201 16.33C17.2288 19.7025 13.4053 22.3091 8.23052 23.3745C6.89602 26.4001 6.21986 29.6191 6.21986 32.9521C6.21986 35.667 6.6734 38.277 7.50699 40.7073C10.0968 39.1186 12.7312 38.2105 15.2265 38.0944C15.8802 38.0605 16.4377 38.5785 16.4677 39.2439C16.4977 39.9092 15.9909 40.4733 15.3353 40.5037C13.1254 40.6069 10.7596 41.4624 8.41289 42.9631C8.96891 44.1652 9.62131 45.3117 10.3607 46.3935C12.5125 43.9891 14.9709 42.3799 17.5683 41.7633C18.2072 41.6112 18.8462 42.0146 18.9956 42.6631C19.145 43.3117 18.7481 43.9603 18.1092 44.112C15.898 44.6368 13.7493 46.1252 11.8507 48.3483C13.9166 50.786 16.4619 52.7916 19.3381 54.2142C19.1286 53.9043 18.9438 53.6032 18.7824 53.3192C17.6222 51.2788 17.0156 49.0021 17.1179 47.0731C17.1531 46.408 17.7124 45.8975 18.368 45.9335C19.0233 45.9693 19.5258 46.5376 19.4905 47.2026C19.3488 49.8741 21.2475 54.4533 25.1793 56.179C26.5807 56.4472 28.0266 56.5877 29.5037 56.5877H36.4958C37.9807 56.5877 39.4331 56.446 40.8416 56.1749C44.993 54.5741 46.6559 49.9754 46.5087 47.2027C46.4734 46.5376 46.9759 45.9693 47.6311 45.9335C48.2884 45.899 48.8462 46.4078 48.8814 47.0729C48.9805 48.9395 48.4337 51.6825 46.9073 54.0906C49.6823 52.6764 52.1422 50.7156 54.1489 48.3481C52.2504 46.125 50.1016 44.6368 47.8904 44.1119C47.2515 43.9602 46.8546 43.3114 47.004 42.663C47.1534 42.0144 47.7921 41.6113 48.4313 41.7631C51.0287 42.3797 53.4871 43.9888 55.6389 46.3933C56.3779 45.3121 57.031 44.1643 57.5867 42.9628C55.2398 41.4622 52.8744 40.6066 50.6643 40.5036C50.0088 40.4731 49.5018 39.909 49.5319 39.2438C49.5619 38.5782 50.1179 38.0617 50.7731 38.0943C53.2684 38.2105 55.9028 39.1183 58.4926 40.707C59.3265 38.2771 59.7799 35.6673 59.7799 32.9524V32.9524ZM51.5574 31.5797C51.6608 31.8557 51.6608 32.1607 51.5574 32.4365C50.3586 35.6382 47.7196 37.7071 44.8341 37.7071C41.9487 37.7071 39.3096 35.6384 38.1105 32.4367C38.0072 32.1607 38.0072 31.8557 38.1105 31.5795C39.3096 28.3777 41.9489 26.3086 44.8341 26.3086C47.7196 26.3088 50.3586 28.3777 51.5574 31.5797ZM49.1608 32.0081C48.2618 29.9963 46.6017 28.7206 44.8341 28.7206C43.0667 28.7206 41.4064 29.9965 40.5073 32.0081C41.4065 34.0194 43.0667 35.2951 44.8341 35.2951C46.6017 35.2951 48.2618 34.0196 49.1608 32.0081ZM44.8341 30.4217C44.178 30.4217 43.646 30.9617 43.646 31.6278V32.3884C43.646 33.0545 44.178 33.5945 44.8341 33.5945C45.4902 33.5945 46.0222 33.0545 46.0222 32.3884V31.6278C46.0222 30.9617 45.4902 30.4217 44.8341 30.4217ZM38.1225 42.707C38.3218 43.1208 38.2715 43.6138 37.9929 43.9774L34.188 48.9412V50.6883L36.9204 51.7493C37.5331 51.9872 37.8399 52.6844 37.6056 53.3065C37.3712 53.9287 36.6842 54.2401 36.0713 54.002L32.9999 52.8094L29.9284 54.002C29.7888 54.0562 29.6452 54.0819 29.5041 54.0819C29.0261 54.0819 28.5754 53.7868 28.3942 53.3064C28.1597 52.6842 28.4665 51.987 29.0794 51.7491L31.8117 50.6881V48.9411L28.0067 43.9772C27.7281 43.6136 27.6778 43.1207 27.8771 42.7068C28.0764 42.293 28.4906 42.0306 28.9444 42.0306H37.0551C37.5091 42.0307 37.9232 42.2932 38.1225 42.707V42.707ZM34.6255 44.4428H31.3743L32.9999 46.5632L34.6255 44.4428Z" fill="white"/>
</svg>
